<svg width="19" height="18" viewBox="0 0 19 18" fill="none" xmlns="http://www.w3.org/2000/svg">
<g id="Edit / Edit_Pencil_01">
<path id="Vector" d="M9.5 6.00204L3.5 12.002V15.002L6.5 15.002L12.5 9.00203M9.5 6.00204L11.6515 3.85055L11.6528 3.84927C11.9489 3.55311 12.0973 3.40477 12.2683 3.34921C12.4189 3.30026 12.5812 3.30026 12.7318 3.34921C12.9027 3.40473 13.0509 3.5529 13.3466 3.84865L14.6515 5.15349C14.9485 5.45051 15.097 5.59908 15.1527 5.77033C15.2016 5.92096 15.2016 6.08322 15.1527 6.23385C15.0971 6.40498 14.9487 6.55333 14.6521 6.84991L14.6515 6.85055L12.5 9.00203M9.5 6.00204L12.5 9.00203" stroke="#0469FF" stroke-width="2" stroke-linecap="round" stroke-linejoin="round"/>
</g>
</svg>
