<svg width="24" height="24" viewBox="0 0 24 24" fill="none" xmlns="http://www.w3.org/2000/svg">
<path d="M20.4201 4.58002C19.9184 4.07659 19.3223 3.67716 18.6659 3.40461C18.0095 3.13206 17.3058 2.99176 16.5951 2.99176C15.8844 2.99176 15.1806 3.13206 14.5243 3.40461C13.8679 3.67716 13.2718 4.07659 12.7701 4.58002L12.0001 5.36002L11.2301 4.58002C10.7284 4.07659 10.1323 3.67716 9.47591 3.40461C8.81953 3.13206 8.1158 2.99176 7.40509 2.99176C6.69437 2.99176 5.99065 3.13206 5.33427 3.40461C4.67789 3.67716 4.08176 4.07659 3.58009 4.58002C1.46009 6.70002 1.33009 10.28 4.00009 13L12.0001 21L20.0001 13C22.6701 10.28 22.5401 6.70002 20.4201 4.58002Z" stroke="#0469FF" stroke-width="2" stroke-linecap="round" stroke-linejoin="round"/>
<path d="M12.0017 5.36005L8.87166 8.50005C8.47595 8.89899 8.25391 9.43814 8.25391 10C8.25391 10.562 8.47595 11.1011 8.87166 11.5C9.2706 11.8958 9.80975 12.1178 10.3717 12.1178C10.9336 12.1178 11.4727 11.8958 11.8717 11.5L14.1317 9.29005C14.6933 8.73433 15.4515 8.42263 16.2417 8.42263C17.0318 8.42263 17.79 8.73433 18.3517 9.29005L20.7517 11.69M18.0017 15L16.0017 13M15.0017 18L13.0017 16" stroke="#0469FF" stroke-width="2" stroke-linecap="round" stroke-linejoin="round"/>
</svg>
