<svg width="24" height="24" viewBox="0 0 24 24" fill="none" xmlns="http://www.w3.org/2000/svg">
<path d="M20.4201 4.58002C19.9184 4.07659 19.3223 3.67716 18.6659 3.40461C18.0095 3.13206 17.3058 2.99176 16.5951 2.99176C15.8844 2.99176 15.1806 3.13206 14.5243 3.40461C13.8679 3.67716 13.2718 4.07659 12.7701 4.58002L12.0001 5.36002L11.2301 4.58002C10.7284 4.07659 10.1323 3.67716 9.47591 3.40461C8.81953 3.13206 8.1158 2.99176 7.40509 2.99176C6.69437 2.99176 5.99065 3.13206 5.33427 3.40461C4.67789 3.67716 4.08176 4.07659 3.58009 4.58002C1.46009 6.70002 1.33009 10.28 4.00009 13L12.0001 21L20.0001 13C22.6701 10.28 22.5401 6.70002 20.4201 4.58002Z" stroke="#718284" stroke-width="2" stroke-linecap="round" stroke-linejoin="round"/>
<path d="M11.9997 5.36005L8.8697 8.50005C8.47399 8.89899 8.25195 9.43814 8.25195 10C8.25195 10.562 8.47399 11.1011 8.8697 11.5C9.26865 11.8958 9.80779 12.1178 10.3697 12.1178C10.9316 12.1178 11.4708 11.8958 11.8697 11.5L14.1297 9.29005C14.6914 8.73433 15.4496 8.42263 16.2397 8.42263C17.0298 8.42263 17.788 8.73433 18.3497 9.29005L20.7497 11.69M17.9997 15L15.9997 13M14.9997 18L12.9997 16" stroke="#718284" stroke-width="2" stroke-linecap="round" stroke-linejoin="round"/>
</svg>
