<svg width="24" height="24" viewBox="0 0 24 24" fill="none" xmlns="http://www.w3.org/2000/svg">
<path d="M12.0268 21C11.7435 21 11.5058 20.904 11.3138 20.712C11.1225 20.5207 11.0268 20.2833 11.0268 20V18.85C10.2768 18.6833 9.61848 18.3917 9.05181 17.975C8.48515 17.5583 8.02681 16.975 7.67681 16.225C7.56015 15.9917 7.55581 15.746 7.66381 15.488C7.77248 15.2293 7.96848 15.0417 8.25181 14.925C8.48515 14.825 8.72681 14.8293 8.97681 14.938C9.22681 15.046 9.41848 15.225 9.55181 15.475C9.83515 15.975 10.1935 16.3543 10.6268 16.613C11.0601 16.871 11.5935 17 12.2268 17C12.9101 17 13.4895 16.846 13.9648 16.538C14.4395 16.2293 14.6768 15.75 14.6768 15.1C14.6768 14.5167 14.4935 14.054 14.1268 13.712C13.7601 13.3707 12.9101 12.9833 11.5768 12.55C10.1435 12.1 9.16015 11.5627 8.62681 10.938C8.09348 10.3127 7.82681 9.55 7.82681 8.65C7.82681 7.56667 8.17681 6.725 8.87681 6.125C9.57681 5.525 10.2935 5.18333 11.0268 5.1V4C11.0268 3.71667 11.1225 3.479 11.3138 3.287C11.5058 3.09567 11.7435 3 12.0268 3C12.3101 3 12.5478 3.09567 12.7398 3.287C12.9311 3.479 13.0268 3.71667 13.0268 4V5.1C13.6601 5.2 14.2101 5.40433 14.6768 5.713C15.1435 6.021 15.5268 6.4 15.8268 6.85C15.9768 7.06667 16.0061 7.30833 15.9148 7.575C15.8228 7.84167 15.6351 8.03333 15.3518 8.15C15.1185 8.25 14.8768 8.254 14.6268 8.162C14.3768 8.07067 14.1435 7.90833 13.9268 7.675C13.7101 7.44167 13.4561 7.26233 13.1648 7.137C12.8728 7.01233 12.5101 6.95 12.0768 6.95C11.3435 6.95 10.7851 7.11267 10.4018 7.438C10.0185 7.76267 9.82681 8.16667 9.82681 8.65C9.82681 9.2 10.0768 9.63333 10.5768 9.95C11.0768 10.2667 11.9435 10.6 13.1768 10.95C14.3268 11.2833 15.1978 11.8123 15.7898 12.537C16.3811 13.2623 16.6768 14.1 16.6768 15.05C16.6768 16.2333 16.3268 17.1333 15.6268 17.75C14.9268 18.3667 14.0601 18.75 13.0268 18.9V20C13.0268 20.2833 12.9311 20.5207 12.7398 20.712C12.5478 20.904 12.3101 21 12.0268 21Z" fill="#0469FF"/>
</svg>
