<svg width="24" height="24" viewBox="0 0 24 24" fill="none" xmlns="http://www.w3.org/2000/svg">
<path d="M12 9L9 12M9 12L12 15M9 12L20 12M15 16.7514V16.7998C15 17.9199 15 18.4804 14.782 18.9082C14.5903 19.2845 14.2845 19.5903 13.9082 19.782C13.4804 20 12.9199 20 11.7998 20H7.1998C6.0797 20 5.52043 20 5.09261 19.782C4.71628 19.5903 4.40952 19.2845 4.21777 18.9082C4 18.4808 4 17.921 4 16.8031L4 7.19642C4 6.07851 4 5.51952 4.21777 5.09212C4.40952 4.71579 4.71628 4.40952 5.09261 4.21777C5.52001 4 6.079 4 7.19691 4H11.8031C12.921 4 13.4808 4 13.9082 4.21777C14.2845 4.40952 14.5903 4.71609 14.782 5.09241C15 5.52023 15 6.0799 15 7.2V7.25" stroke="#718284" stroke-width="2" stroke-linecap="round" stroke-linejoin="round"/>
</svg>
